# xmcd
#
# Track frame offsets: 
#        150
#        12996
#        28939
#        43916
#        58735
#        74572
#        92763
#        112530
#        128975
#        147570
#        158953
#        171523
#
# Disc length: 2580 seconds
#
# Revision: 1
# Processed by: cddbd v1.5.2PL0 Copyright (c) Steve Scherf et al.
# Submitted via: ExactAudioCopy v0.99pb4
#
DISCID=b10a120c
DTITLE=CunninLynguists - Strangestrumentals
DYEAR=2006
DGENRE=Hip-Hop
TTITLE0=Since When (Instrumental)
TTITLE1=Nothing To Give (Instrumental)
TTITLE2=Caved In (Instrumental)
TTITLE3=Hourglass (Instrumental)
TTITLE4=Beautiful Girl (Instrumental)
TTITLE5=Brain Cell (Instrumental)
TTITLE6=America Loves Gangsters (Instrumental)
TTITLE7=Never Know Why (Instrumental)
TTITLE8=The Gates (Instrumental)
TTITLE9=Hellfire (Instrumental)
TTITLE10=Remember Me (Instrumental)
TTITLE11=The Lights (Instrumental)
EXTD=
EXTT0=
EXTT1=
EXTT2=
EXTT3=
EXTT4=
EXTT5=
EXTT6=
EXTT7=
EXTT8=
EXTT9=
EXTT10=
EXTT11=
PLAYORDER=
